# xmcd
#
# Track frame offsets:
#	150
#	12775
#	24417
#	38137
#	48432
#	61537
#	73295
#	87250
#	99012
#	111132
#	125217
#	141670
#	150877
#	167462
#	180365
#	196975
#	208027
#	222135
#	238147
#	252050
#	266520
#	279040
#	294187
#	313082
#
# Disc length: 4388 seconds
#
# Revision: 0
# Processed by: cddbd v1.5.1PL2 Copyright (c) Steve Scherf et al.
# Submitted via: audiograbber 1.83.01
#
DISCID=44112218
DTITLE=циыяцос лаяцаяитгс - есу ликас стгм йаядиа лоу and пыс ма се невасы
DYEAR=1995
DGENRE=каийа
TTITLE0=цуяма писы се ийетеуы
TTITLE1=циа тгм ацйакиа соу пехаимы
TTITLE2=паяамолгсе г дийиа соу
TTITLE3=пяытос стгм йаядиа соу
TTITLE4=паяадеицлатос ваяим есу
TTITLE5=стом йахяежтг соу
TTITLE6=есу ликас стгм йаядиа лоу
TTITLE7=лг лоу ликас ле веикг поу йаиме
TTITLE8=дем глоум типота
TTITLE9=о паяабатгс
TTITLE10=йаядиа дем евы
TTITLE11=йатсе жяомила
TTITLE12=пыс ма се невасы
TTITLE13=дем хекы ма се васы
TTITLE14=циа сема фы
TTITLE15=ацапг емовг
TTITLE16=адийа выяифоуле
TTITLE17=се поио ма пы том помо лоу
TTITLE18=цумаийес ле ягланате
TTITLE19=циа 'йеимг ха йатастяажы
TTITLE20=ацымиа ыспоу ма 'яхеи г стицлг
TTITLE21=стгм йкеидылемг поята соу
TTITLE22=то стеямо лоу ваяти
TTITLE23=деине лоу тгм ацапг соу
EXTD=
EXTT0=
EXTT1=
EXTT2=
EXTT3=
EXTT4=
EXTT5=
EXTT6=
EXTT7=
EXTT8=
EXTT9=
EXTT10=
EXTT11=
EXTT12=
EXTT13=
EXTT14=
EXTT15=
EXTT16=
EXTT17=
EXTT18=
EXTT19=
EXTT20=
EXTT21=
EXTT22=
EXTT23=
PLAYORDER=
